<svg xmlns="http://www.w3.org/2000/svg" width="24.5" height="24.5" viewBox="0 0 24.5 24.5"><defs><style>.a{fill:#ebebeb;stroke:#ebebeb;stroke-width:0.5px;}</style></defs><g transform="translate(0.25 0.25)"><path class="a" d="M23.5,11.5a.5.5,0,0,1,0,1H23v-1Z"/><path class="a" d="M12.5,11.5H23v1H12.5Z"/><path class="a" d="M21.5,24H12a.5.5,0,0,0,.5-.5V23h9A1.5,1.5,0,0,0,23,21.5v-9h.5A.5.5,0,0,0,24,12v9.5A2.5,2.5,0,0,1,21.5,24Z"/><path class="a" d="M24,2.5V12a.5.5,0,0,0-.5-.5H23v-9A1.5,1.5,0,0,0,21.5,1h-9V.5A.5.5,0,0,0,12,0h9.5A2.5,2.5,0,0,1,24,2.5Z"/><path class="a" d="M20,6a.5.5,0,0,1,0,1H16a.5.5,0,0,1,0-1Z"/><path class="a" d="M20,16a.5.5,0,0,1,0,1H16a.5.5,0,0,1,0-1Z"/><path class="a" d="M20,19a.5.5,0,0,1,0,1H16a.5.5,0,0,1,0-1Z"/><path class="a" d="M12.5,23v.5a.5.5,0,0,1-1,0V23Z"/><path class="a" d="M11.5,12.5h1V23h-1Z"/><path class="a" d="M11.5,11.5h1v1h-1Z"/><path class="a" d="M11.5,1h1V11.5h-1Z"/><path class="a" d="M12.5.5V1h-1V.5a.5.5,0,0,1,1,0Z"/><path class="a" d="M1,11.5H11.5v1H1Z"/><path class="a" d="M8,6A.5.5,0,0,1,8,7H6.5V6Z"/><path class="a" d="M7.85,19.15a.483.483,0,0,1,0,.7.483.483,0,0,1-.7,0L6,18.7l.7-.7Z"/><path class="a" d="M7.15,16.15a.495.495,0,0,1,.7.7L6.7,18,6,17.3Z"/><path class="a" d="M5.505,17.5h.99v.99h-.99Z" transform="translate(-10.971 9.515) rotate(-45)"/><path class="a" d="M6.5,7V8.5a.5.5,0,0,1-1,0V7Z"/><path class="a" d="M5.5,6h1V7h-1Z"/><path class="a" d="M6.5,4.5V6h-1V4.5a.5.5,0,0,1,1,0Z"/><path class="a" d="M6,17.3l-.7.7L4.15,16.85a.495.495,0,0,1,.7-.7Z"/><path class="a" d="M5.5,6V7H4A.5.5,0,0,1,4,6Z"/><path class="a" d="M4.85,19.85a.483.483,0,0,1-.7,0,.483.483,0,0,1,0-.7L5.3,18l.7.7Z"/><path class="a" d="M1,11.5v1H.5a.5.5,0,0,1,0-1Z"/><path class="a" d="M0,2.5A2.5,2.5,0,0,1,2.5,0H12a.5.5,0,0,0-.5.5V1h-9A1.5,1.5,0,0,0,1,2.5v9H.5A.5.5,0,0,0,0,12Z"/><path class="a" d="M1,21.5A1.5,1.5,0,0,0,2.5,23h9v.5a.5.5,0,0,0,.5.5H2.5A2.5,2.5,0,0,1,0,21.5V12a.5.5,0,0,0,.5.5H1Z"/></g></svg>