<svg xmlns="http://www.w3.org/2000/svg" width="43.532" height="59.324" viewBox="0 0 43.532 59.324"><defs><style>.a{fill:#fff;stroke:#fff;stroke-width:0.3px;}</style></defs><g transform="translate(-68.344 0.15)"><path class="a" d="M109.132,0a2.6,2.6,0,0,0-2.445,1.729H92.7V.865A.865.865,0,0,0,91.839,0H88.381a.865.865,0,0,0-.865.865v.865H73.533a2.594,2.594,0,1,0,0,1.729H87.516v.865a.865.865,0,0,0,.865.865h3.458a.865.865,0,0,0,.865-.865V3.458h13.983A2.594,2.594,0,1,0,109.132,0ZM71.088,3.458a.865.865,0,1,1,.865-.865A.866.866,0,0,1,71.088,3.458Zm19.887,0H89.246V1.729h1.729Zm18.158,0A.865.865,0,1,1,110,2.594.866.866,0,0,1,109.132,3.458Z"/><path class="a" d="M157.781,83.15l-12.33-21.834a2.593,2.593,0,0,0-4.514,0l.005,0c-.05.077-12.335,21.83-12.335,21.83a.864.864,0,0,0-.067.7l4.892,14.677a2.592,2.592,0,0,0-.3,4.515l-3.428,4.571a6.09,6.09,0,0,0-1.21,3.631.865.865,0,0,0,.865.865h27.668a.865.865,0,0,0,.865-.865,6.091,6.091,0,0,0-1.21-3.631l-3.428-4.571a2.592,2.592,0,0,0-.3-4.515l4.894-14.677A.864.864,0,0,0,157.781,83.15Zm-13.723-3.033v6.917a.865.865,0,1,1-1.729,0V80.117a.865.865,0,1,1,1.729,0Zm12.016,30.262H130.312a4.348,4.348,0,0,1,.776-1.729l3.891-5.188h16.428l3.891,5.188A4.35,4.35,0,0,1,156.073,110.378Zm-4.858-12.1H138A.865.865,0,1,0,138,100h13.848a.865.865,0,0,1-.014,1.729H134.546a.865.865,0,0,1,0-1.729.865.865,0,0,0,.82-1.138l-5.066-15.2,12.028-21.3v15.3a2.6,2.6,0,0,0-1.729,2.445v6.917a2.594,2.594,0,1,0,5.188,0V80.117a2.6,2.6,0,0,0-1.729-2.445V62.366l12.028,21.3Z" transform="translate(-53.083 -53.083)"/></g></svg>