<svg xmlns="http://www.w3.org/2000/svg" width="18.278" height="18.278" viewBox="0 0 18.278 18.278"><defs><style>.a{fill:#ccc;}</style></defs><g transform="translate(0)"><g transform="translate(0 0)"><g transform="translate(0 0)"><path class="a" d="M12.566,0H5.712A5.713,5.713,0,0,0,0,5.712v6.854a5.713,5.713,0,0,0,5.712,5.712h6.854a5.713,5.713,0,0,0,5.712-5.712V5.712A5.713,5.713,0,0,0,12.566,0Zm4,12.566a4,4,0,0,1-4,4H5.712a4,4,0,0,1-4-4V5.712a4,4,0,0,1,4-4h6.854a4,4,0,0,1,4,4Z" transform="translate(0 0)"/></g></g><g transform="translate(4.57 4.57)"><path class="a" d="M132.57,128a4.57,4.57,0,1,0,4.57,4.57A4.57,4.57,0,0,0,132.57,128Zm0,7.425a2.856,2.856,0,1,1,2.856-2.856A2.86,2.86,0,0,1,132.57,135.425Z" transform="translate(-128 -128)"/></g><g transform="translate(13.443 3.618)"><ellipse class="a" cx="0.609" cy="0.609" rx="0.609" ry="0.609"/></g></g></svg>