<svg xmlns="http://www.w3.org/2000/svg" width="24.692" height="22.341" viewBox="0 0 24.692 22.341"><defs><style>.a{fill:#fff;stroke:#fff;strokeWidth:0.5px;}</style></defs><g transform="translate(0.25 0.25)"><path class="a" d="M21.641,0H6A2.453,2.453,0,0,0,3.535,2.435l-.1,13.775H.382A.4.4,0,0,0,0,16.617v1.9a3.322,3.322,0,0,0,3.134,3.306v.023H16.308v-.026c.1,0,.157.026.225.026h.009a3.311,3.311,0,0,0,3.292-3.329V6.464H23.81a.4.4,0,0,0,.382-.412V2.574A2.569,2.569,0,0,0,21.641,0ZM3.306,21.058h0A2.539,2.539,0,0,1,.784,18.513V16.993H13.222v1.513a3.316,3.316,0,0,0,.968,2.353,1.407,1.407,0,0,1,.206.2ZM19.05,18.512a2.53,2.53,0,0,1-2.509,2.546h-.008a2.545,2.545,0,0,1-2.527-2.551V16.617a.406.406,0,0,0-.392-.408h-9.4l.1-13.772A1.669,1.669,0,0,1,6,.784H19.791a2.673,2.673,0,0,0-.741,1.8ZM23.408,2.581v3.1H19.833v-3.1a1.814,1.814,0,0,1,1.8-1.8h.011a1.786,1.786,0,0,1,1.768,1.794Zm0,0"/><path class="a" d="M164.214,60.594l2.02,1.381a.386.386,0,0,0,.438,0l2.014-1.381a3.043,3.043,0,0,0,1.216-2.321V55.479a.383.383,0,0,0-.209-.352l-3.075-1.513a.385.385,0,0,0-.342,0l-3.07,1.509a.382.382,0,0,0-.209.352v2.8A3.043,3.043,0,0,0,164.214,60.594Zm-.434-4.875,2.669-1.317,2.669,1.321v2.55a2.258,2.258,0,0,1-.875,1.673l-1.8,1.23-1.792-1.23a2.256,2.256,0,0,1-.873-1.674Zm0,0" transform="translate(-155.014 -50.951)"/><path class="a" d="M202.443,118.356a.391.391,0,0,0,.277.117h0a.392.392,0,0,0,.277-.116l1.558-1.559a.392.392,0,0,0-.554-.555l-1.28,1.28-.512-.517a.392.392,0,0,0-.557.552Zm0,0" transform="translate(-191.671 -110.442)"/><path class="a" d="M142.794,248h-9.4a.392.392,0,1,0,0,.784h9.4a.392.392,0,1,0,0-.784Zm0,0" transform="translate(-126.487 -235.855)"/><path class="a" d="M142.794,285h-9.4a.392.392,0,0,0,0,.784h9.4a.392.392,0,0,0,0-.784Zm0,0" transform="translate(-126.487 -271.043)"/></g></svg>