<svg xmlns="http://www.w3.org/2000/svg" width="20.496" height="16.653" viewBox="0 0 20.496 16.653"><defs><style>.a{fill:#ccc;}</style></defs><g transform="translate(0 0)"><path class="a" d="M20.5,49.971a8.76,8.76,0,0,1-2.421.664,4.178,4.178,0,0,0,1.848-2.322,8.4,8.4,0,0,1-2.664,1.017A4.2,4.2,0,0,0,9.99,52.2a4.327,4.327,0,0,0,.1.958,11.893,11.893,0,0,1-8.661-4.4,4.2,4.2,0,0,0,1.291,5.616,4.15,4.15,0,0,1-1.9-.518v.046a4.221,4.221,0,0,0,3.366,4.129,4.194,4.194,0,0,1-1.1.138,3.715,3.715,0,0,1-.8-.072,4.242,4.242,0,0,0,3.926,2.927,8.443,8.443,0,0,1-5.21,1.792A7.871,7.871,0,0,1,0,62.767a11.829,11.829,0,0,0,6.446,1.886A11.877,11.877,0,0,0,18.405,52.7c0-.186-.006-.365-.015-.543A8.382,8.382,0,0,0,20.5,49.971Z" transform="translate(0 -48)"/></g></svg>