<svg xmlns="http://www.w3.org/2000/svg" width="60" height="52.943" viewBox="0 0 60 52.943"><defs><style>.a{fill:#fff;}</style></defs><path class="a" d="M53.188,52.943H6.812A6.82,6.82,0,0,1,0,46.131V6.812A6.82,6.82,0,0,1,6.812,0H53.188A6.82,6.82,0,0,1,60,6.812v39.32A6.82,6.82,0,0,1,53.188,52.943ZM6.812,2.029A4.788,4.788,0,0,0,2.029,6.812v39.32a4.788,4.788,0,0,0,4.783,4.783H53.188a4.788,4.788,0,0,0,4.783-4.783V6.812a4.788,4.788,0,0,0-4.783-4.783Zm0,0"/><path class="a" d="M250.78,246.463H234.839a1.015,1.015,0,0,1,0-2.029H250.78a1.015,1.015,0,0,1,0,2.029Zm0,0" transform="translate(-199.937 -209.008)"/><path class="a" d="M250.78,297.072H234.839a1.014,1.014,0,1,1,0-2.029H250.78a1.014,1.014,0,0,1,0,2.029Zm0,0" transform="translate(-199.937 -252.283)"/><path class="a" d="M250.78,145.244H234.839a1.014,1.014,0,0,1,0-2.029H250.78a1.014,1.014,0,0,1,0,2.029Zm0,0" transform="translate(-199.937 -122.459)"/><path class="a" d="M250.78,195.853H234.839a1.014,1.014,0,1,1,0-2.029H250.78a1.014,1.014,0,0,1,0,2.029Zm0,0" transform="translate(-199.937 -165.734)"/><path class="a" d="M58.986,81.759H1.014a1.014,1.014,0,0,1,0-2.029H58.986a1.014,1.014,0,0,1,0,2.029Zm0,0" transform="translate(0 -68.175)"/><path class="a" d="M82.286,31.532a3.157,3.157,0,1,1,3.157-3.157A3.16,3.16,0,0,1,82.286,31.532Zm0-4.284a1.128,1.128,0,1,0,1.128,1.128A1.129,1.129,0,0,0,82.286,27.248Zm0,0" transform="translate(-67.661 -21.564)"/><path class="a" d="M31.852,31.532a3.157,3.157,0,1,1,3.157-3.157A3.16,3.16,0,0,1,31.852,31.532Zm0-4.284a1.128,1.128,0,1,0,1.128,1.128A1.129,1.129,0,0,0,31.852,27.248Zm0,0" transform="translate(-24.537 -21.564)"/><path class="a" d="M132.723,31.532a3.157,3.157,0,1,1,3.157-3.157A3.16,3.16,0,0,1,132.723,31.532Zm0-4.284a1.128,1.128,0,1,0,1.128,1.128A1.129,1.129,0,0,0,132.723,27.248Zm0,0" transform="translate(-110.789 -21.564)"/><path class="a" d="M73.42,167.248H55.014A1.014,1.014,0,0,1,54,166.233v-22a1.015,1.015,0,0,1,1.014-1.014H73.42a1.015,1.015,0,0,1,1.014,1.014v22A1.014,1.014,0,0,1,73.42,167.248Zm-17.391-2.029H72.406V145.244H56.029Zm0,0" transform="translate(-46.174 -122.459)"/></svg>